<?xml version="1.0" encoding="UTF-8" standalone="no"?>
<!DOCTYPE svg PUBLIC "-//W3C//DTD SVG 1.1//EN" "http://www.w3.org/Graphics/SVG/1.1/DTD/svg11.dtd">
<svg xmlns="http://www.w3.org/2000/svg" xmlns:xlink="http://www.w3.org/1999/xlink" version="1.1" width="566.93pt" height="170.04pt" viewBox="0 0 566.93 170.04">
<g enable-background="new">
<g id="Layer-1" data-name="Layer 1">
<clipPath id="cp0">
<path transform="matrix(1,0,0,-1,0,170.04)" d="M 0 170.04 L 566.93 170.04 L 566.93 0 L 0 0 Z "/>
</clipPath>
<g clip-path="url(#cp0)">
<path transform="matrix(1,0,0,-1,137.5324,75.51669)" d="M 0 0 C -26.994 16.031 -71.52 17.505 -97.289 9.684 C -101.428 8.428 -105.804 10.764 -107.057 14.902 C -108.311 19.043 -105.978 23.416 -101.837 24.674 C -72.255 33.653 -23.081 31.919 7.995 13.472 C 11.718 11.262 12.938 6.455 10.732 2.739 C 8.524 -.983 3.713 -2.21 0 0 M -.884 -23.744 C -2.778 -26.817 -6.796 -27.781 -9.865 -25.894 C -32.369 -12.061 -66.687 -8.053 -93.312 -16.135 C -96.764 -17.178 -100.411 -15.232 -101.46 -11.785 C -102.5 -8.333 -100.553 -4.693 -97.106 -3.643 C -66.691 5.587 -28.88 1.117 -3.032 -14.768 C .037 -16.658 1.003 -20.678 -.884 -23.744 M -11.131 -46.547 C -12.636 -49.015 -15.849 -49.788 -18.308 -48.284 C -37.973 -36.265 -62.725 -33.551 -91.875 -40.209 C -94.684 -40.853 -97.484 -39.093 -98.124 -36.285 C -98.768 -33.476 -97.014 -30.676 -94.199 -30.035 C -62.299 -22.743 -34.936 -25.881 -12.863 -39.369 C -10.402 -40.872 -9.627 -44.087 -11.131 -46.547 M -49.537 74.24 C -95.786 74.24 -133.28 36.747 -133.28 -9.502 C -133.28 -55.756 -95.786 -93.247 -49.537 -93.247 C -3.286 -93.247 34.207 -55.756 34.207 -9.502 C 34.207 36.747 -3.286 74.24 -49.537 74.24 " fill="#ffffff"/>
<path transform="matrix(1,0,0,-1,232.0887,78.5862)" d="M 0 0 C -14.459 3.448 -17.033 5.868 -17.033 10.953 C -17.033 15.757 -12.51 18.989 -5.784 18.989 C .736 18.989 7.2 16.534 13.979 11.48 C 14.184 11.327 14.441 11.266 14.694 11.306 C 14.947 11.344 15.171 11.482 15.319 11.692 L 22.379 21.644 C 22.669 22.054 22.59 22.619 22.199 22.932 C 14.132 29.405 5.048 32.552 -5.57 32.552 C -21.182 32.552 -32.087 23.184 -32.087 9.778 C -32.087 -4.597 -22.68 -9.686 -6.424 -13.616 C 7.412 -16.803 9.747 -19.472 9.747 -24.246 C 9.747 -29.535 5.026 -32.823 -2.573 -32.823 C -11.013 -32.823 -17.897 -29.98 -25.598 -23.311 C -25.789 -23.147 -26.051 -23.071 -26.293 -23.085 C -26.548 -23.106 -26.781 -23.224 -26.943 -23.419 L -34.859 -32.84 C -35.191 -33.231 -35.149 -33.815 -34.765 -34.153 C -25.805 -42.152 -14.785 -46.377 -2.894 -46.377 C 13.93 -46.377 24.8 -37.185 24.8 -22.958 C 24.8 -10.934 17.617 -4.284 0 0 " fill="#ffffff"/>
<path transform="matrix(1,0,0,-1,307.1621,94.701099)" d="M 0 0 C 0 -10.153 -6.254 -17.238 -15.209 -17.238 C -24.062 -17.238 -30.74 -9.831 -30.74 0 C -30.74 9.83 -24.062 17.238 -15.209 17.238 C -6.398 17.238 0 9.99 0 0 M -12.212 30.375 C -19.504 30.375 -25.485 27.503 -30.417 21.618 L -30.417 28.242 C -30.417 28.765 -30.841 29.191 -31.364 29.191 L -44.31 29.191 C -44.833 29.191 -45.256 28.765 -45.256 28.242 L -45.256 -45.36 C -45.256 -45.883 -44.833 -46.309 -44.31 -46.309 L -31.364 -46.309 C -30.841 -46.309 -30.417 -45.883 -30.417 -45.36 L -30.417 -22.127 C -25.484 -27.664 -19.502 -30.368 -12.212 -30.368 C 1.337 -30.368 15.053 -19.938 15.053 0 C 15.053 19.942 1.337 30.375 -12.212 30.375 " fill="#ffffff"/>
<path transform="matrix(1,0,0,-1,357.3732,112.04509)" d="M 0 0 C -9.281 0 -16.278 7.457 -16.278 17.344 C -16.278 27.273 -9.523 34.478 -.214 34.478 C 9.126 34.478 16.171 27.021 16.171 17.127 C 16.171 7.2 9.37 0 0 0 M 0 47.719 C -17.449 47.719 -31.119 34.283 -31.119 17.127 C -31.119 .158 -17.543 -13.137 -.214 -13.137 C 17.297 -13.137 31.009 .254 31.009 17.344 C 31.009 34.377 17.391 47.719 0 47.719 " fill="#ffffff"/>
<path transform="matrix(1,0,0,-1,425.6439,65.51029)" d="M 0 0 L -14.247 0 L -14.247 14.566 C -14.247 15.089 -14.669 15.515 -15.192 15.515 L -28.137 15.515 C -28.661 15.515 -29.087 15.089 -29.087 14.566 L -29.087 0 L -35.312 0 C -35.833 0 -36.255 -.426 -36.255 -.949 L -36.255 -12.075 C -36.255 -12.598 -35.833 -13.024 -35.312 -13.024 L -29.087 -13.024 L -29.087 -41.815 C -29.087 -53.45 -23.296 -59.35 -11.875 -59.35 C -7.231 -59.35 -3.378 -58.391 .254 -56.332 C .548 -56.167 .732 -55.849 .732 -55.511 L .732 -44.915 C .732 -44.588 .562 -44.279 .282 -44.108 C 0 -43.931 -.351 -43.922 -.64 -44.065 C -3.134 -45.32 -5.545 -45.899 -8.24 -45.899 C -12.393 -45.899 -14.247 -44.013 -14.247 -39.786 L -14.247 -13.024 L 0 -13.024 C .523 -13.024 .944 -12.598 .944 -12.075 L .944 -.949 C .944 -.426 .523 0 0 0 " fill="#ffffff"/>
<path transform="matrix(1,0,0,-1,475.281,65.566699)" d="M 0 0 L 0 1.789 C 0 7.052 2.018 9.399 6.544 9.399 C 9.243 9.399 11.411 8.863 13.839 8.053 C 14.138 7.959 14.45 8.006 14.693 8.185 C 14.943 8.364 15.084 8.651 15.084 8.954 L 15.084 19.865 C 15.084 20.281 14.816 20.651 14.415 20.773 C 11.85 21.536 8.568 22.32 3.654 22.32 C -8.305 22.32 -14.625 15.585 -14.625 2.853 L -14.625 .113 L -20.844 .113 C -21.367 .113 -21.795 -.313 -21.795 -.835 L -21.795 -12.019 C -21.795 -12.541 -21.367 -12.968 -20.844 -12.968 L -14.625 -12.968 L -14.625 -57.377 C -14.625 -57.9 -14.203 -58.326 -13.681 -58.326 L -.735 -58.326 C -.212 -58.326 .214 -57.9 .214 -57.377 L .214 -12.968 L 12.302 -12.968 L 30.819 -57.365 C 28.717 -62.03 26.65 -62.958 23.828 -62.958 C 21.547 -62.958 19.145 -62.277 16.689 -60.934 C 16.458 -60.807 16.185 -60.785 15.935 -60.863 C 15.688 -60.95 15.48 -61.134 15.375 -61.374 L 10.987 -71.001 C 10.778 -71.456 10.956 -71.99 11.394 -72.226 C 15.975 -74.707 20.111 -75.766 25.221 -75.766 C 34.781 -75.766 40.065 -71.313 44.724 -59.333 L 67.185 -1.292 C 67.297 -1.001 67.264 -.671 67.085 -.412 C 66.907 -.155 66.62 0 66.306 0 L 52.828 0 C 52.425 0 52.063 -.257 51.931 -.636 L 38.124 -40.073 L 23.001 -.61 C 22.863 -.243 22.51 0 22.117 0 Z " fill="#ffffff"/>
<path transform="matrix(1,0,0,-1,446.5048,65.51029)" d="M 0 0 L -12.947 0 C -13.469 0 -13.895 -.426 -13.895 -.949 L -13.895 -57.433 C -13.895 -57.956 -13.469 -58.382 -12.947 -58.382 L 0 -58.382 C .522 -58.382 .949 -57.956 .949 -57.433 L .949 -.949 C .949 -.426 .522 0 0 0 " fill="#ffffff"/>
<path transform="matrix(1,0,0,-1,440.0974,39.79129)" d="M 0 0 C -5.129 0 -9.291 -4.152 -9.291 -9.281 C -9.291 -14.413 -5.129 -18.57 0 -18.57 C 5.127 -18.57 9.285 -14.413 9.285 -9.281 C 9.285 -4.152 5.127 0 0 0 " fill="#ffffff"/>
<path transform="matrix(1,0,0,-1,554.0493,71.12879)" d="M 0 0 L -2.372 0 L -2.372 -3.025 L 0 -3.025 C 1.184 -3.025 1.891 -2.446 1.891 -1.512 C 1.891 -.527 1.184 0 0 0 M 1.537 -4.315 L 4.115 -7.923 L 1.942 -7.923 L -.378 -4.614 L -2.372 -4.614 L -2.372 -7.923 L -4.191 -7.923 L -4.191 1.64 L .073 1.64 C 2.295 1.64 3.757 .503 3.757 -1.41 C 3.757 -2.978 2.851 -3.936 1.537 -4.315 M -.483 4.823 C -5.149 4.823 -8.681 1.113 -8.681 -3.43 C -8.681 -7.97 -5.175 -11.631 -.53 -11.631 C 4.135 -11.631 7.671 -7.923 7.671 -3.378 C 7.671 1.163 4.162 4.823 -.483 4.823 M -.53 -12.542 C -5.654 -12.542 -9.641 -8.427 -9.641 -3.43 C -9.641 1.567 -5.602 5.729 -.483 5.729 C 4.641 5.729 8.628 1.615 8.628 -3.378 C 8.628 -8.376 4.592 -12.542 -.53 -12.542 " fill="#ffffff"/>
</g>
</g>
</g>
</svg>
